<?xml version="1.0" encoding="UTF-8"?>
<svg width="144px" height="24px" viewBox="0 0 144 24" version="1.1" xmlns="http://www.w3.org/2000/svg" xmlns:xlink="http://www.w3.org/1999/xlink">
    <title>Group 6</title>
    <g id="Games-page" stroke="none" stroke-width="1" fill="none" fill-rule="evenodd">
        <g id="Umamigames-page-Car" transform="translate(-835.000000, -337.000000)">
            <g id="Group-6" transform="translate(835.000000, 337.000000)">
                <g id="Icon-24px">
                    <polygon id="Shape" points="0 0 24 0 24 24 0 24"></polygon>
                    <polygon id="star" fill="#FFA726" points="18.18 21 16.545 13.971 22 9.244 14.809 8.627 12 2 9.191 8.627 2 9.244 7.455 13.971 5.82 21 12 17.272"></polygon>
                </g>
                <g id="Icon-24px" transform="translate(30.000000, 0.000000)">
                    <polygon id="Shape" points="0 0 24 0 24 24 0 24"></polygon>
                    <polygon id="star" fill="#FFA726" points="18.18 21 16.545 13.971 22 9.244 14.809 8.627 12 2 9.191 8.627 2 9.244 7.455 13.971 5.82 21 12 17.272"></polygon>
                </g>
                <g id="Icon-24px" transform="translate(60.000000, 0.000000)">
                    <polygon id="Shape" points="0 0 24 0 24 24 0 24"></polygon>
                    <polygon id="star" fill="#FFA726" points="18.18 21 16.545 13.971 22 9.244 14.809 8.627 12 2 9.191 8.627 2 9.244 7.455 13.971 5.82 21 12 17.272"></polygon>
                </g>
                <g id="Icon-24px" transform="translate(90.000000, 0.000000)">
                    <polygon id="Shape" points="0 0 24 0 24 24 0 24"></polygon>
                    <polygon id="star" fill="#FFA726" points="18.18 21 16.545 13.971 22 9.244 14.809 8.627 12 2 9.191 8.627 2 9.244 7.455 13.971 5.82 21 12 17.272"></polygon>
                </g>
                <g id="Icon-24px" transform="translate(120.000000, 0.000000)">
                    <polygon id="Shape" points="0 0 24 0 24 24 0 24"></polygon>
                    <polygon id="star" fill="#000000" opacity="0.246814546" points="18.18 21 16.545 13.971 22 9.244 14.809 8.627 12 2 9.191 8.627 2 9.244 7.455 13.971 5.82 21 12 17.272"></polygon>
                </g>
            </g>
        </g>
    </g>
</svg>